<svg width="16px" height="11px" viewBox="0 0 16 11" version="1.1" xmlns="http://www.w3.org/2000/svg" xmlns:xlink="http://www.w3.org/1999/xlink">
    <g id="Page-1" stroke="none" stroke-width="1" fill="none" fill-rule="evenodd">
        <g id="2---Cadastro-Vazio" transform="translate(-1044.000000, -467.000000)" fill="#8F8F8F" fill-rule="nonzero">
            <g id="Group" transform="translate(756.000000, 94.000000)">
                <g id="email" transform="translate(0.000000, 329.000000)">
                    <g id="icon/empy" transform="translate(288.000000, 44.000000)">
                        <path d="M8,0 C4.36428571,0 1.27142857,2.22857143 0,5.39285714 C1.27142857,8.55714286 4.36428571,10.7857143 8,10.7857143 C11.6357143,10.7857143 14.7285714,8.55714286 16,5.39285714 C14.7285714,2.22857143 11.6357143,0 8,0 Z M8,8.98928571 C6,8.98928571 4.36428571,7.37142857 4.36428571,5.39285714 C4.36428571,3.41428571 6,1.79642857 8,1.79642857 C10,1.79642857 11.6357143,3.41428571 11.6357143,5.39285714 C11.6357143,7.37142857 10,8.98928571 8,8.98928571 Z M8,3.23571429 C6.8,3.23571429 5.81785714,4.20714286 5.81785714,5.39285714 C5.81785714,6.57857143 6.8,7.55 8,7.55 C9.2,7.55 10.1821429,6.57857143 10.1821429,5.39285714 C10.1821429,4.20714286 9.2,3.23571429 8,3.23571429 Z" id="Shape"></path>
                    </g>
                </g>
            </g>
        </g>
    </g>
</svg>