<?xml version="1.0" encoding="UTF-8"?>
<svg width="10px" height="13px" viewBox="0 0 10 13" version="1.1" xmlns="http://www.w3.org/2000/svg" xmlns:xlink="http://www.w3.org/1999/xlink">
    <!-- Generator: sketchtool 51.2 (57519) - http://www.bohemiancoding.com/sketch -->
    <title>9E680F06-AB0C-44D7-B882-3C8A26B9220C</title>
    <desc>Created with sketchtool.</desc>
    <defs></defs>
    <g id="Page-1" stroke="none" stroke-width="1" fill="none" fill-rule="evenodd">
        <g id="2---Cadastro-Vazio" transform="translate(-787.000000, -654.000000)" fill="#FFFFFF" fill-rule="nonzero">
            <g id="Group" transform="translate(756.000000, 94.000000)">
                <g id="btn" transform="translate(0.000000, 542.000000)">
                    <g id="icon/empy" transform="translate(31.000000, 18.000000)">
                        <path d="M9.75673666,5.8391718 C9.5946524,5.67598691 9.39796827,5.59445569 9.16638024,5.59445569 L8.88876039,5.59445569 L8.88876039,3.91603938 C8.88876039,2.84379524 8.5069153,1.92313242 7.74298187,1.15389782 C6.97910925,0.384632606 6.06491875,0 4.99995433,0 C3.9350203,0 3.02064738,0.384632606 2.25683557,1.1538672 C1.49290214,1.92313242 1.11105704,2.84376463 1.11105704,3.91603938 L1.11105704,5.59445569 L0.833315586,5.59445569 C0.601909977,5.59445569 0.405104235,5.67598691 0.243050379,5.8391718 C0.0809965237,6.00223422 0,6.20041355 0,6.43364854 L0,11.4685607 C0,11.7015814 0.0810269278,11.8998219 0.243050379,12.0630374 C0.405104235,12.2260692 0.601909977,12.3076923 0.833315586,12.3076923 L9.16659307,12.3076923 C9.3981811,12.3076923 9.59483482,12.2261611 9.75694948,12.0630374 C9.91885132,11.8998219 9.99999986,11.7015814 9.99999986,11.4685607 L9.99999986,6.43355669 C10.0001215,6.2005054 9.91885132,6.00235669 9.75673666,5.8391718 Z M7.1875,5.36489152 L2.8125,5.36489152 L2.8125,3.74178916 C2.8125,3.14446167 3.02616502,2.63441653 3.45340527,2.21183139 C3.88070537,1.78918704 4.39620702,1.57790927 5.00008979,1.57790927 C5.60403241,1.57790927 6.11941434,1.78915743 6.54674438,2.21183139 C6.97386491,2.63438693 7.1875,3.14446167 7.1875,3.74178916 L7.1875,5.36489152 Z" id="Shape"></path>
                    </g>
                </g>
            </g>
        </g>
    </g>
</svg>