<svg width="139" height="56" viewBox="0 0 139 56" fill="none" xmlns="http://www.w3.org/2000/svg">
<rect x="0.5" y="0.5" width="137.195" height="54.4256" rx="7.5" fill="white"/>
<path d="M105.357 36.2647C104.92 36.2647 104.565 35.9019 104.565 35.4547C104.565 32.5898 104.565 23.1117 104.565 23.1117C104.566 23.0893 104.566 23.067 104.568 23.0447C104.574 22.9778 104.587 22.9118 104.608 22.8487C104.651 22.7216 104.725 22.6062 104.821 22.516C104.902 22.4404 104.997 22.3821 105.1 22.3453C105.163 22.324 105.227 22.3103 105.292 22.3045C105.313 22.3025 105.335 22.3025 105.357 22.3015C105.379 22.3025 105.401 22.3035 105.422 22.3045C105.444 22.3074 105.466 22.3093 105.488 22.3122C105.552 22.3239 105.616 22.3432 105.676 22.3695C105.877 22.4597 106.035 22.6363 106.106 22.8487C106.128 22.9118 106.141 22.9778 106.147 23.0447C106.149 23.067 106.149 23.0893 106.149 23.1117C106.149 23.1117 106.149 32.5898 106.149 35.4547C106.149 35.9019 105.795 36.2647 105.358 36.2647C105.357 36.2647 105.357 36.2647 105.357 36.2647ZM105.379 18.5103C105.829 18.5103 106.194 18.8838 106.194 19.3436C106.194 19.8034 105.829 20.1769 105.379 20.1769C104.929 20.1769 104.564 19.8034 104.564 19.3436C104.564 18.8838 104.929 18.5103 105.379 18.5103Z" fill="#333333"/>
<path d="M100.881 23.8596V19.2592C100.882 19.2359 100.882 19.2127 100.884 19.1894C100.89 19.1186 100.905 19.0487 100.929 18.9828C100.969 18.8722 101.031 18.7703 101.113 18.6869C101.194 18.6035 101.294 18.5385 101.402 18.4987C101.467 18.4745 101.534 18.4589 101.604 18.4521C101.627 18.4502 101.65 18.4502 101.673 18.4492C101.696 18.4502 101.718 18.4511 101.742 18.4521C101.765 18.456 101.788 18.458 101.81 18.4618C101.879 18.4745 101.945 18.4958 102.008 18.5249C102.112 18.5754 102.205 18.6481 102.28 18.7393C102.353 18.8296 102.408 18.9362 102.438 19.0497C102.449 19.0954 102.458 19.1419 102.462 19.1895C102.463 19.2128 102.463 19.236 102.464 19.2593C102.464 22.4064 102.474 25.5536 102.464 28.7006C102.462 29.012 102.443 29.3235 102.404 29.6329C102.331 30.2179 102.191 30.7952 101.99 31.3491C101.661 32.2523 101.164 33.0886 100.534 33.8064C99.7542 34.6961 98.772 35.3965 97.6857 35.835C96.987 36.1163 96.2486 36.29 95.4996 36.3491C94.6426 36.4151 93.7752 36.3336 92.9457 36.1037C92.0602 35.8582 91.2213 35.4449 90.4799 34.891C89.6864 34.2992 89.0087 33.5483 88.4929 32.6936C88.1071 32.0523 87.8132 31.3528 87.6255 30.6252C87.3212 29.4455 87.2947 28.1931 87.5488 27.0017C87.7023 26.2781 87.9602 25.5786 88.309 24.9296C88.7185 24.1709 89.2523 23.485 89.8817 22.9058C90.4798 22.3557 91.1634 21.9047 91.9 21.5748C92.4972 21.307 93.1286 21.1198 93.7723 21.0189C94.0879 20.9694 94.4064 20.9404 94.7259 20.9326C94.7742 20.9316 94.8226 20.9307 94.8719 20.9297C94.8975 20.9297 94.9221 20.9297 94.9478 20.9307C94.9715 20.9297 94.9791 20.9297 95.0151 20.9297C95.2558 20.9326 95.4967 20.9452 95.7366 20.9694C96.2816 21.0267 96.821 21.144 97.3415 21.3206C98.2667 21.635 99.1285 22.1346 99.8688 22.7836C100.24 23.1078 100.578 23.4696 100.881 23.8596ZM94.9403 22.5499C94.8948 22.5509 94.8493 22.5509 94.8047 22.5518C94.7535 22.5528 94.7023 22.5537 94.6511 22.5567C94.3382 22.5712 94.0263 22.61 93.7193 22.6741C93.1467 22.7943 92.5931 23.001 92.0802 23.2862C91.5133 23.6024 90.9966 24.0128 90.5567 24.496C90.0913 25.0082 89.7121 25.6009 89.4418 26.2432C89.2182 26.7738 89.0703 27.3376 89.003 27.9109C88.9281 28.5406 88.9489 29.1828 89.0655 29.8056C89.1802 30.4168 89.3879 31.0095 89.6788 31.5567C90.021 32.2018 90.478 32.782 91.0203 33.2632C91.5739 33.754 92.2166 34.1392 92.9058 34.3934C93.6471 34.666 94.4406 34.7833 95.2274 34.7426C95.6256 34.7222 96.0228 34.6601 96.4096 34.5584C96.821 34.4507 97.221 34.2964 97.6002 34.1004C98.0278 33.8793 98.4288 33.6057 98.7927 33.2865C99.1824 32.945 99.5293 32.5521 99.8223 32.1203C100.271 31.4577 100.589 30.7059 100.752 29.9172C100.809 29.6416 100.847 29.3622 100.866 29.0819C100.876 28.9373 100.88 28.7937 100.881 28.6492V27.8867C100.873 27.8188 100.863 27.7509 100.853 27.6839C100.785 27.2493 100.672 26.8234 100.514 26.415C100.183 25.5583 99.6611 24.7832 98.9995 24.1604C98.4079 23.6026 97.7054 23.169 96.9462 22.8953C96.5509 22.7527 96.1413 22.6538 95.7261 22.5995C95.473 22.5664 95.2189 22.551 94.9639 22.55H94.9403V22.5499Z" fill="#333333"/>
<path d="M79.0264 20.9299C79.0567 20.9299 79.0871 20.9299 79.1183 20.9299C79.3117 20.9319 79.506 20.9406 79.6985 20.9571C80.109 20.992 80.5157 21.0609 80.9148 21.1637C80.9745 21.1792 81.0438 21.2064 81.1187 21.2442C81.1993 21.2684 81.2789 21.2947 81.3575 21.3208C82.2828 21.6351 83.1444 22.1348 83.8849 22.7838C84.6669 23.4687 85.3096 24.3157 85.7618 25.2615C86.1657 26.1056 86.4159 27.0242 86.4975 27.9605C86.5127 28.14 86.5222 28.3203 86.5259 28.5018C86.5259 28.5357 86.5269 28.5668 86.5269 28.6008C86.5269 28.6483 86.5269 28.6949 86.5222 28.7424C86.5117 28.8355 86.4852 28.9277 86.4435 29.0121C86.4094 29.082 86.3658 29.1479 86.3127 29.2052C86.1866 29.3429 86.0132 29.4322 85.8302 29.4555C85.7686 29.4623 85.706 29.4633 85.6444 29.4555C85.6084 29.4603 85.5951 29.4594 85.5525 29.4614H76.8917C76.8452 29.4594 76.8338 29.4603 76.7883 29.4536C76.7021 29.4429 76.6186 29.4167 76.5409 29.3769C76.4479 29.3304 76.3646 29.2645 76.2963 29.1849C76.2394 29.119 76.193 29.0423 76.1597 28.9608C76.1332 28.8958 76.1151 28.8269 76.1066 28.7562C76.0791 28.5446 76.136 28.3273 76.263 28.1576C76.3048 28.1013 76.354 28.0508 76.4091 28.0082C76.5048 27.9325 76.6176 27.8802 76.737 27.856C76.7702 27.8492 76.8043 27.8444 76.8395 27.8423C76.8565 27.8413 76.8736 27.8413 76.8916 27.8404H84.8917C84.8851 27.788 84.8775 27.7357 84.8689 27.6842C84.8016 27.2496 84.6878 26.8237 84.5304 26.4153C84.1996 25.5586 83.6772 24.7835 83.0156 24.1607C82.424 23.6029 81.7215 23.1692 80.9632 22.8956C80.5679 22.753 80.1573 22.6541 79.7421 22.5997C79.4975 22.5677 79.252 22.5522 79.0064 22.5513C78.6737 22.5542 78.3409 22.5862 78.0139 22.6464C77.2489 22.7861 76.5123 23.082 75.8582 23.5117C75.2752 23.8949 74.7575 24.3819 74.3357 24.9447C73.9261 25.4919 73.6068 26.1098 73.3982 26.7666C73.2058 27.3739 73.1081 28.0122 73.1081 28.6505C73.1081 29.2026 73.1801 29.7526 73.3242 30.2842C73.492 30.9041 73.7583 31.4949 74.1062 32.0294C74.5043 32.6396 75.0096 33.1751 75.5908 33.6039C76.1786 34.0376 76.844 34.3596 77.5446 34.5498C78.4083 34.7826 79.3222 34.8136 80.1999 34.6409C80.9896 34.4857 81.7461 34.1636 82.4116 33.7009C82.6373 33.5447 82.8515 33.372 83.0543 33.1857C83.1558 33.0926 83.2535 32.9956 83.3483 32.8956L83.3738 32.8684L83.4014 32.8394L83.4469 32.7937C83.4629 32.7802 83.4791 32.7655 83.4962 32.752C83.5303 32.7259 83.5663 32.7025 83.6033 32.6821C83.7351 32.6103 83.8858 32.5783 84.0346 32.5899C84.12 32.5967 84.2034 32.6171 84.2821 32.651C84.3798 32.6927 84.4689 32.7558 84.5428 32.8334C84.6319 32.9275 84.6983 33.0429 84.7343 33.1681C84.758 33.2525 84.7684 33.3399 84.7656 33.4262C84.7627 33.5136 84.7456 33.5999 84.7162 33.6814C84.6868 33.7629 84.6442 33.8395 84.5901 33.9075C84.5665 33.9365 84.5428 33.9618 84.5181 33.9889C84.485 34.0239 84.4527 34.0578 84.4195 34.0927C84.2764 34.2393 84.1266 34.3809 83.9731 34.5167C83.556 34.8825 83.0999 35.2006 82.6156 35.4655C82.1946 35.6954 81.7529 35.8836 81.2978 36.0281C80.0294 36.4298 78.6596 36.4793 77.3666 36.1736C76.5446 35.9786 75.755 35.6411 75.0421 35.1783C74.3652 34.7408 73.7585 34.1927 73.2485 33.5611C72.6578 32.8277 72.2 31.9837 71.9071 31.0815C71.6378 30.2511 71.5098 29.376 71.5269 28.5019C71.5411 27.7113 71.6738 26.9245 71.9222 26.1755C72.2151 25.2898 72.6673 24.4613 73.2484 23.7406C73.6712 23.2167 74.1613 22.75 74.7026 22.3562C75.2363 21.9671 75.8193 21.65 76.4326 21.4161C76.973 21.2094 77.5371 21.0669 78.1096 20.9922C78.3845 20.9563 78.6604 20.9369 78.9373 20.9321H78.9391C78.9828 20.9299 78.9846 20.9299 79.0264 20.9299Z" fill="#333333"/>
<path d="M63.7434 21.4742C63.7443 21.4519 63.7443 21.4295 63.7462 21.4072C63.7519 21.3413 63.7652 21.2753 63.786 21.2112C63.8286 21.0841 63.9026 20.9697 63.9993 20.8785C64.0789 20.8029 64.1746 20.7446 64.2781 20.7078C64.3397 20.6865 64.405 20.6728 64.4696 20.667C64.4914 20.6651 64.5132 20.6651 64.535 20.6641C64.5568 20.6651 64.5786 20.666 64.6004 20.667C64.6222 20.6699 64.644 20.6718 64.6658 20.6757C64.7303 20.6864 64.7928 20.7058 64.8535 20.7329C65.0545 20.8231 65.2127 20.9987 65.2839 21.2111C65.3057 21.2752 65.3189 21.3411 65.3246 21.4071C65.3255 21.4294 65.3255 21.4518 65.3265 21.4741V23.9198C65.4564 23.75 65.5919 23.585 65.7351 23.426C66.1238 22.9943 66.5599 22.6072 67.0329 22.2764C67.561 21.9058 68.1354 21.6041 68.7383 21.3829C69.2521 21.1938 69.7859 21.0627 70.3281 20.9919C70.6305 20.9532 70.9348 20.9337 71.2391 20.9298C71.2856 20.9298 71.2856 20.9298 71.331 20.9317C71.3471 20.9328 71.3623 20.9337 71.3775 20.9356C71.4078 20.9385 71.4382 20.9443 71.4685 20.9511C71.5728 20.9764 71.6723 21.0239 71.7586 21.0889C71.9074 21.2014 72.0145 21.3672 72.0572 21.5506C72.0752 21.6273 72.0827 21.7068 72.0781 21.7854C72.0742 21.863 72.0581 21.9406 72.0326 22.0153C72.0013 22.1036 71.9548 22.1871 71.896 22.2589C71.7775 22.4044 71.6098 22.5043 71.4277 22.5372C71.3974 22.5431 71.3671 22.5469 71.3358 22.5489C71.3045 22.5508 71.2808 22.5499 71.2495 22.5508C71.2173 22.5508 71.2041 22.5508 71.1718 22.5518C71.1206 22.5528 71.0695 22.5537 71.0191 22.5566C70.8295 22.5654 70.641 22.5828 70.4532 22.6099C70.0162 22.672 69.5848 22.7855 69.1715 22.9466C68.5316 23.1959 67.9352 23.5588 67.4149 24.0147C66.9702 24.4037 66.5816 24.8607 66.2658 25.3641C66.0184 25.7589 65.8165 26.1829 65.6639 26.6243C65.516 27.0531 65.4164 27.4984 65.3662 27.9495C65.3396 28.1823 65.3273 28.4171 65.3263 28.6508V35.5601C65.3244 35.6202 65.3253 35.6348 65.3159 35.694C65.3016 35.7823 65.2732 35.8677 65.2315 35.9462C65.1898 36.0248 65.1358 36.0956 65.0713 36.1568C64.9746 36.2479 64.8561 36.313 64.7291 36.346C64.6238 36.3732 64.512 36.378 64.4048 36.3595C64.3404 36.3488 64.2769 36.3294 64.2172 36.3023C64.1375 36.2664 64.0627 36.2169 63.9991 36.1568C63.8863 36.051 63.8048 35.9113 63.7678 35.76C63.7565 35.7164 63.7498 35.6717 63.746 35.6272C63.7442 35.6048 63.7442 35.5825 63.7432 35.5602V28.6483L63.7434 21.4742Z" fill="#333333"/>
<path d="M56.4756 20.9302C56.6696 20.9321 56.8632 20.9403 57.0566 20.9566C57.4665 20.9915 57.8736 21.0605 58.2724 21.1632C59.1521 21.3897 59.9894 21.7817 60.7336 22.3123C60.9949 22.4985 61.2444 22.7017 61.4807 22.92C61.5706 23.0031 61.6584 23.0887 61.7444 23.1758L61.7752 23.2073C61.8136 23.2498 61.8246 23.2595 61.8576 23.3066C61.9322 23.4126 61.9811 23.537 61.9989 23.6664C62.0109 23.7526 62.009 23.8407 61.9937 23.9263C61.9628 24.098 61.877 24.2573 61.7516 24.3756C61.6889 24.4346 61.6171 24.4831 61.5395 24.5188C61.462 24.5545 61.3788 24.5773 61.2942 24.5859C61.103 24.6056 60.9078 24.552 60.7519 24.4369C60.7068 24.4036 60.6674 24.3649 60.6281 24.325C60.6027 24.299 60.5768 24.2735 60.551 24.248C60.5163 24.214 60.4813 24.1806 60.446 24.1474C60.1798 23.8994 59.8931 23.6749 59.5881 23.4791C59.0419 23.1285 58.4409 22.87 57.8137 22.7165C57.0162 22.5214 56.1787 22.4983 55.3716 22.6458C54.6062 22.7859 53.8703 23.0821 53.2159 23.5116C52.6327 23.8943 52.1155 24.3813 51.6939 24.944C51.2837 25.4915 50.9646 26.1098 50.7563 26.7661C50.5634 27.3737 50.4662 28.0118 50.4662 28.6507C50.4662 29.2019 50.5384 29.7527 50.6824 30.2839C50.8504 30.9034 51.1158 31.4943 51.4644 32.029C51.8621 32.6393 52.3674 33.1751 52.9489 33.6039C53.5368 34.0373 54.2015 34.3599 54.9021 34.5492C55.7659 34.7827 56.6805 34.8134 57.5577 34.6411C58.3477 34.486 59.1042 34.1635 59.7695 33.701C59.9949 33.5442 60.2098 33.3719 60.4124 33.1853C60.5135 33.0922 60.6111 32.9953 60.7061 32.8957L60.7317 32.8684L60.759 32.8391L60.8047 32.7936C60.8212 32.7798 60.837 32.7653 60.854 32.7522C60.8879 32.7259 60.9238 32.7024 60.9613 32.6819C61.093 32.6104 61.2438 32.5781 61.3926 32.5897C61.4774 32.5962 61.5611 32.617 61.6394 32.6506C61.7178 32.6844 61.7908 32.7311 61.8546 32.7886C61.9507 32.8748 62.0256 32.9846 62.0714 33.1066C62.1096 33.2082 62.1275 33.3175 62.1237 33.4262C62.1206 33.5133 62.1039 33.5996 62.0741 33.6812C62.0443 33.7627 62.0015 33.8391 61.9481 33.9068C61.9247 33.9365 61.9009 33.9616 61.8754 33.9888C61.8429 34.0236 61.8101 34.058 61.777 34.092C61.6338 34.2394 61.4849 34.381 61.3305 34.5162C60.9134 34.8817 60.4575 35.2007 59.973 35.4655C59.5526 35.6952 59.1107 35.8837 58.6552 36.028C57.3874 36.4295 56.0175 36.4788 54.7246 36.1731C53.902 35.9786 53.1126 35.6407 52.3994 35.1784C51.7233 34.7403 51.116 34.1923 50.6067 33.5607C50.0153 32.8275 49.5576 31.9832 49.265 31.0807C48.9958 30.2509 48.8679 29.3752 48.8842 28.5012C48.8992 27.6952 49.0374 26.8924 49.2947 26.1304C49.6028 25.2178 50.0806 24.3671 50.6942 23.6337C51.0965 23.1528 51.5562 22.7225 52.0603 22.3555C52.5939 21.9669 53.1771 21.6497 53.7908 21.4152C54.3314 21.2087 54.8951 21.0665 55.4675 20.9919C55.7698 20.9524 56.0738 20.933 56.3784 20.9299C56.4106 20.9301 56.4431 20.9301 56.4756 20.9302Z" fill="#333333"/>
<path d="M35.4229 39.4189L35.4382 38.1921C35.4382 38.1921 38.9217 38.2078 41.3705 38.1921C41.5529 38.1882 41.7344 38.1767 41.9153 38.1528C42.316 38.1002 42.7096 37.9929 43.0815 37.8317C43.5592 37.6251 43.9995 37.3301 44.3769 36.9662C44.5664 36.7841 44.7399 36.5853 44.8961 36.3727C45.4712 35.5899 45.7975 34.6341 45.863 33.6597C45.8869 33.3027 45.8777 32.9433 45.8291 32.5888C45.777 32.2079 45.6805 31.8332 45.5425 31.4751C45.3153 30.8862 44.9753 30.3441 44.5488 29.886C44.136 29.4426 43.6429 29.0793 43.1007 28.82C42.6719 28.615 42.2131 28.4757 41.744 28.4083C41.52 28.3763 41.2944 28.3622 41.0682 28.3606L40.996 28.356C40.9334 28.3439 40.9165 28.3436 40.8567 28.3197C40.7669 28.2841 40.6858 28.2268 40.6222 28.1526C40.5423 28.0601 40.4915 27.9433 40.4771 27.8207C40.473 27.7851 40.4717 27.7213 40.473 27.6844C40.4746 27.6275 40.4768 27.5931 40.4902 27.5379C40.5132 27.4421 40.5586 27.3525 40.6225 27.2786C40.7183 27.1674 40.8529 27.0942 40.9963 27.0755C41.0462 27.069 41.0852 27.0709 41.1344 27.0703C41.1884 27.0693 41.2037 27.0687 41.258 27.0667C41.3194 27.0641 41.3807 27.0605 41.4421 27.0559C41.6232 27.0405 41.8031 27.0173 41.9814 26.9823C42.3485 26.9101 42.7071 26.794 43.048 26.6361C43.7867 26.294 44.4357 25.7587 44.9213 25.0943C45.2591 24.6329 45.5163 24.1107 45.677 23.5578C45.8272 23.0421 45.8924 22.502 45.8722 21.9644C45.8518 21.4131 45.7406 20.8664 45.5425 20.3533C45.3223 19.7824 44.9968 19.256 44.5884 18.8067C44.1676 18.3443 43.6605 17.9654 43.1007 17.6979C42.6898 17.5017 42.2521 17.3657 41.8041 17.2954C41.582 17.2604 41.3587 17.2434 41.1347 17.2391C39.9537 17.2313 36.6039 17.2166 35.4229 17.2394C35.1756 17.2473 34.9308 17.2937 34.6985 17.3823C34.3282 17.5229 33.9978 17.7646 33.7476 18.0772C33.5799 18.2868 33.4492 18.5268 33.3629 18.7828C33.285 19.014 33.2454 19.256 33.2412 19.4999L33.2409 19.5303V39.4176H32.042C32.042 34.1361 31.9468 24.7219 32.043 19.441C32.0449 19.3828 32.0475 19.325 32.0516 19.2674C32.0797 18.909 32.1574 18.5565 32.2881 18.2224C32.4712 17.7541 32.753 17.3284 33.1099 16.9808C33.4457 16.6538 33.8464 16.3978 34.2806 16.232C34.6375 16.0963 35.013 16.0247 35.3935 16.0123C36.5892 15.9894 39.954 16.0041 41.15 16.0116C41.3798 16.0162 41.6082 16.0312 41.836 16.0607C42.3521 16.128 42.8591 16.2644 43.341 16.4658C44.3465 16.8863 45.2313 17.5893 45.8815 18.479C46.3036 19.0565 46.6254 19.7092 46.8263 20.4004C47.0062 21.0194 47.089 21.6668 47.073 22.312C47.0558 23.0029 46.9247 23.6896 46.6845 24.3354C46.418 25.0521 46.0189 25.7159 45.5147 26.2832C45.1431 26.7018 44.7149 27.0677 44.2462 27.3675C44.0455 27.4957 43.8375 27.6108 43.6241 27.7148C43.6845 27.7439 43.7449 27.7746 43.8046 27.8054C44.1475 27.9878 44.4737 28.1994 44.7779 28.4436C45.4974 29.0224 46.0847 29.7689 46.4822 30.6125C46.7612 31.2044 46.9458 31.842 47.0267 32.494C47.0749 32.8825 47.0858 33.2749 47.0637 33.6653C47.0177 34.4903 46.8212 35.3061 46.4758 36.0539C46.1636 36.7295 45.7307 37.3465 45.1984 37.8589C44.7172 38.3219 44.1567 38.6973 43.5484 38.9605C43.0761 39.1649 42.5767 39.3015 42.0683 39.3686C41.8415 39.3983 41.614 39.4127 41.3855 39.4176C38.9268 39.4346 35.4229 39.4189 35.4229 39.4189Z" fill="#FFC400"/>
<rect x="0.5" y="0.5" width="137.195" height="54.4256" rx="7.5" stroke="black"/>
</svg>
